<?xml version="1.0" encoding="iso-8859-1"?>
<!DOCTYPE svg PUBLIC "-//W3C//DTD SVG 1.0//EN" "http://www.w3.org/TR/2001/REC-SVG-20010904/DTD/svg10.dtd">
<!-- Creator: CorelDRAW -->
<svg xmlns="http://www.w3.org/2000/svg" xmlns:odm="http://product.corel.com/CGS/11/cddns/" xmlns:corel-charset="http://product.corel.com/CGS/11/cddns/" xml:space="preserve" width="1250" height="937" style="shape-rendering:geometricPrecision; text-rendering:geometricPrecision; image-rendering:optimizeQuality; fill-rule:evenodd"
     viewBox="3421 5415 1250 937" preserveAspectRatio="xMinYMin meet">
 <defs>
  <style type="text/css">
   <![CDATA[
    .str0 {stroke:#0066cc;stroke-width:15px}
    .fil0 {fill:none}
   ]]>
  </style>
 </defs>
 <g id="Layer_x0020_1">
  <path class="fil0 str0" d="M4340 5458c0,6 2,27 -3,37 -5,11 -16,15 -32,24 38,62 -9,74 -78,90 -69,15 -119,20 -158,59 -38,39 -34,43 -41,84 -1,62 19,120 83,139 22,7 42,15 63,20 55,13 89,24 111,65 21,41 13,31 28,69 15,38 37,85 75,117 60,6 24,-9 107,1l7 13c21,92 -67,80 -112,50 -19,-15 -50,-44 -77,-28 -29,20 -37,40 -48,77 14,-13 20,-13 28,-15m21 -213c-49,-2 -123,-30 -165,-22 -13,2 -17,11 -21,16 -5,49 54,35 72,35 -14,28 -18,29 -45,47 -5,70 10,179 -72,199 4,-11 4,-18 -3,-28 -32,-13 -51,17 -85,25 -28,-6 -35,-15 -42,-18 -36,-30 -41,-64 -99,-53 7,-21 25,-48 26,-49 38,-38 43,-26 84,23m123 -342c-14,12 -34,26 -49,33 -14,-52 -77,-29 -112,-4 -20,14 -33,58 -47,61l-12 3c10,-36 -18,-38 -52,-35 -27,-9 -59,-32 -67,-62 -11,-25 -18,-40 -40,-20 6,-31 22,-55 54,-47 14,4 18,23 25,36m444 -238c-12,-3 -31,-6 -42,-7 -12,-2 -24,1 -35,2l-6 -39c29,8 56,11 69,-9 8,-11 5,-27 -1,-37 -13,-22 -60,-20 -77,1l-7 -54 71 -4 61 -1c27,0 54,-1 86,-1 116,29 125,200 61,280 -20,25 -34,46 -65,69 -51,37 -123,35 -130,113m137 -117c-15,32 -14,95 50,113 52,4 87,-14 135,-30 -17,1 -81,-8 -97,-59 -25,-83 29,-125 94,-186l18 -13c53,-36 87,-90 49,-140 30,2 41,11 56,30 5,8 9,18 -6,28 -12,36 -69,90 -88,103 -35,30 -60,46 -83,77 -55,77 -16,138 78,140 59,1 104,-43 78,-107 -15,-41 -50,-73 -78,-105m-4 -29c-43,-52 -47,-77 -29,-136 -34,4 -45,6 -57,34 -5,11 4,28 17,33 8,22 41,67 52,82m-742 -143c-4,-11 -3,-20 -12,-25 -28,-12 -70,18 -89,37 15,-3 17,2 22,12m68 29c-5,-64 -26,-69 -67,-28 -15,16 -19,24 -19,36 58,-31 37,57 60,100 -5,-18 4,6 5,9 30,4 45,19 36,45 -3,7 -12,10 -23,4 6,10 7,16 27,16 58,-1 146,-25 167,49m289 -320l-3 8c0,1 -48,40 -50,23 -1,-15 0,-20 -1,-30m-6 1l-7 -42 21 0c6,5 9,19 23,19 15,-1 18,-13 28,-19l21 0c15,10 14,19 27,19 15,0 15,-12 24,-19l22 0 -5 40m-337 61c2,20 0,26 12,32 7,3 50,-3 87,-10 39,-6 73,-8 105,-3m-479 44c-24,17 -38,19 -58,15 -82,-15 -71,-134 11,-125 12,1 17,5 26,13m721 65c-5,147 -101,196 -216,245 -36,15 -53,83 -13,122m-466 -298c-13,10 -36,18 -65,14 -52,-8 -85,-42 -85,-104 4,-68 58,-107 124,-87l15 10m-16 333c-24,-17 -17,-11 -14,-13 134,-79 71,67 124,96 38,0 63,-33 91,-55 37,-27 64,-42 107,-61m-247 -5l-14 -82m16 129c-5,-35 -48,-20 -59,-11 -11,8 -19,18 -28,29 4,3 18,-11 26,6m-14 -47l-23 -138m482 274c-48,15 -106,29 -146,58 -32,47 23,122 36,168 3,45 17,91 -37,100 -42,-11 -38,-55 -61,-85 -52,-65 -120,11 -138,27 5,-2 24,-5 28,-6 4,-1 11,0 16,1m-16 1l3 13m327 -273c-29,-28 -47,-49 -42,-105 16,-39 20,-47 69,-70 49,-22 186,-67 203,-157 3,-25 13,-55 -9,-95m-330 181c-46,-13 -97,-16 -144,-18 -29,-4 -93,-11 -103,-46 -5,-46 0,-84 -2,-132 -2,-34 -78,-35 -102,-3 10,6 8,3 13,12m576 547c-13,0 -50,2 -51,-13 -6,-54 -16,-53 -46,-75l4 -16m-369 230l-34 -213m134 223c-21,-28 -53,-20 -74,3 -1,2 -8,9 -18,19 -9,9 -6,4 -17,22 13,-2 23,-7 40,-2m500 34c-17,-5 -23,-14 -39,-19 -21,-6 -39,22 -45,46 -3,11 -4,26 -5,38 19,-12 26,-9 35,-6m-468 -93l20 124c-17,-28 -5,-23 -43,-59l-59 -327 -42 -31 -9 -63m692 418c-14,-2 -24,-6 -39,-12 -56,-23 -50,42 -52,78 9,-20 56,-23 87,6 16,6 28,4 43,7 10,-1 24,1 33,-4 16,-8 49,-58 69,-12 3,5 -2,13 -1,15 68,-5 35,-227 35,-228 32,-30 25,-26 31,-58 -59,4 -120,6 -177,-7 -33,-28 -4,-95 -33,-110 13,-1 25,0 38,-3 50,-11 220,-50 218,-138 -1,-52 -39,-104 -91,-158m-1143 685c65,-232 131,-464 196,-696l41 20 13 63 -53 195 -56 35c-30,108 -60,217 -90,325 -47,47 -36,36 -51,58zm703 -428c-1,0 -31,-16 -43,-57 -20,-59 -13,-119 77,-158 76,-33 172,-29 206,-122 10,-30 3,-82 -23,-103"/>
 </g>
</svg>
